<svg xmlns="http://www.w3.org/2000/svg" version="1.1" xmlns:xlink="http://www.w3.org/1999/xlink" xmlns:svgjs="http://svgjs.dev/svgjs" width="1440" height="560" preserveAspectRatio="none" viewBox="0 0 1440 560"><g mask="url(&quot;#SvgjsMask1076&quot;)" fill="none"><rect width="1440" height="560" x="0" y="0" fill="#0e2a47"></rect><path d="M0,345.501C87.372,343.618,170.534,423.254,252.464,392.842C335.691,361.948,387.617,274.244,417.33,190.588C445.799,110.432,419.277,25.443,413.087,-59.393C406.365,-151.512,434.174,-254.387,379.432,-328.78C324.105,-403.968,222.92,-432.181,130.285,-443.711C45.663,-454.244,-32.112,-411.919,-114.593,-390.27C-199.99,-367.856,-308.841,-384.244,-362.732,-314.309C-416.89,-244.028,-372.524,-142.476,-373.906,-53.76C-375.087,22.061,-388.644,95.525,-370.261,169.093C-348.852,254.772,-339.282,365.89,-259.555,403.875C-177.842,442.806,-90.492,347.451,0,345.501" fill="#0b2035"></path><path d="M1440 976.284C1517.321 965.585 1584.0819999999999 927.9359999999999 1653.43 892.104 1730.26 852.406 1818.492 826.447 1867.667 755.309 1920.613 678.717 1939.49 582.077 1931.893 489.276 1924.022 393.134 1889.88 297.752 1824.409 226.90800000000002 1759.908 157.11399999999998 1665.627 128.90499999999997 1574.362 102.406 1483.343 75.97899999999998 1390.681 57.910000000000025 1297.253 73.84800000000001 1195.8 91.15499999999997 1089.305 119.95100000000002 1020.874 196.825 952.152 274.027 921.671 383.606 929.796 486.644 937.267 581.388 1017.767 648.593 1063.083 732.1320000000001 1104.562 808.598 1111.893 909.64 1184.906 956.935 1257.958 1004.255 1353.782 988.2139999999999 1440 976.284" fill="#123559"></path></g><defs><mask id="SvgjsMask1076"><rect width="1440" height="560" fill="#ffffff"></rect></mask></defs></svg>